<svg xmlns="http://www.w3.org/2000/svg" viewBox="0 0 720 260" role="img" aria-labelledby="lazybacktestLogoTitle lazybacktestLogoDesc">
  <title id="lazybacktestLogoTitle">LazyBacktest 品牌識別標誌</title>
  <desc id="lazybacktestLogoDesc">舒適沙發前的螢幕顯示上揚趨勢，搭配 LazyBacktest 英文字標，象徵輕鬆掌握量化回測。</desc>
  <defs>
    <linearGradient id="lazybacktestWordmarkGradient" x1="280" y1="190" x2="628" y2="190" gradientUnits="userSpaceOnUse">
      <stop offset="0" stop-color="#9AA0AC" />
      <stop offset="0.32" stop-color="#7F8B9F" />
      <stop offset="0.68" stop-color="#446489" />
      <stop offset="1" stop-color="#1C3F73" />
    </linearGradient>
    <linearGradient id="lazybacktestBackrestGradient" x1="80" y1="44" x2="222" y2="154" gradientUnits="userSpaceOnUse">
      <stop offset="0" stop-color="#1E4A74" />
      <stop offset="1" stop-color="#15365B" />
    </linearGradient>
    <linearGradient id="lazybacktestSeatGradient" x1="86" y1="120" x2="230" y2="208" gradientUnits="userSpaceOnUse">
      <stop offset="0" stop-color="#173C64" />
      <stop offset="1" stop-color="#0F2846" />
    </linearGradient>
    <linearGradient id="lazybacktestUnderlineGradient" x1="284" y1="210" x2="632" y2="210" gradientUnits="userSpaceOnUse">
      <stop offset="0" stop-color="#C7CBD2" stop-opacity="0.6" />
      <stop offset="1" stop-color="#5A7496" stop-opacity="0.9" />
    </linearGradient>
    <linearGradient id="lazybacktestMonitorGradient" x1="226" y1="30" x2="394" y2="146" gradientUnits="userSpaceOnUse">
      <stop offset="0" stop-color="#F1F6FF" />
      <stop offset="1" stop-color="#D4E6FB" />
    </linearGradient>
    <clipPath id="lazybacktestClipSafe">
      <rect x="20" y="20" width="680" height="220" rx="24" />
    </clipPath>
  </defs>
  <g clip-path="url(#lazybacktestClipSafe)">
    <g transform="translate(32,28)">
      <rect x="224" y="14" width="184" height="128" rx="22" fill="url(#lazybacktestMonitorGradient)" stroke="#1E4A74" stroke-width="6" />
      <path d="M260 128h112l18 38H242z" fill="#102B49" opacity="0.28" />
      <path d="M254 56l36 36 32-28 32 32" fill="none" stroke="#2CB1A8" stroke-width="10" stroke-linecap="round" stroke-linejoin="round" />
      <path d="M354 92h36l-10-34" fill="none" stroke="#2CB1A8" stroke-width="10" stroke-linecap="round" stroke-linejoin="round" />
      <path d="M122 12h72c28 0 52 22 52 50v70c0 11-9 20-20 20H168a42 42 0 0 0-42 42v6H114c-35 0-64-29-64-64V62c0-27 22-50 48-50z" fill="url(#lazybacktestBackrestGradient)" />
      <path d="M52 116h170c20 0 36 16 36 36v30c0 20-16 36-36 36H154l-10 32H98l-10-32H52c-20 0-36-16-36-36v-30c0-20 16-36 36-36z" fill="url(#lazybacktestSeatGradient)" />
      <path d="M60 214h48l8 24H52z" fill="#0E213B" />
      <path d="M174 214h48l-16 24h-40z" fill="#0E213B" />
      <rect x="86" y="142" width="46" height="40" rx="18" fill="#1E4A74" opacity="0.65" />
      <rect x="154" y="142" width="46" height="40" rx="18" fill="#1E4A74" opacity="0.65" />
      <path d="M80 200h114" fill="none" stroke="#2CB1A8" stroke-width="10" stroke-linecap="round" opacity="0.6" />
      <path d="M110 86c0-18 14-32 32-32s32 14 32 32v34h-64z" fill="#1E4A74" opacity="0.58" />
    </g>
    <g transform="translate(292,60)">
      <text x="0" y="96" font-family="'Inter', 'Noto Sans TC', 'Segoe UI', sans-serif" font-size="88" font-weight="700" fill="url(#lazybacktestWordmarkGradient)">LAZY</text>
      <text x="230" y="96" font-family="'Inter', 'Noto Sans TC', 'Segoe UI', sans-serif" font-size="88" font-weight="700" fill="#14355C">BACKTEST</text>
      <rect x="0" y="114" width="500" height="12" rx="6" fill="url(#lazybacktestUnderlineGradient)" />
    </g>
  </g>
</svg>
