<!-- Asset Version: LB-GUIDE-IMG-20250218E -->
<svg width="480" height="280" viewBox="0 0 480 280" fill="none" xmlns="http://www.w3.org/2000/svg">
  <rect width="480" height="280" rx="18" fill="#F8FAFC"/>
  <rect x="32" y="36" width="416" height="208" rx="18" fill="#FFFFFF" stroke="#CBD5E1" stroke-width="2"/>
  <rect x="56" y="64" width="156" height="18" rx="9" fill="#E2E8F0"/>
  <rect x="56" y="96" width="120" height="16" rx="8" fill="#E2E8F0"/>
  <rect x="56" y="126" width="240" height="112" rx="14" fill="#F8FAFC" stroke="#0891B2" stroke-dasharray="10 8"/>
  <rect x="80" y="150" width="160" height="18" rx="9" fill="#E2E8F0"/>
  <rect x="80" y="176" width="120" height="14" rx="7" fill="#E2E8F0"/>
  <rect x="80" y="202" width="96" height="10" rx="5" fill="#E2E8F0"/>
  <rect x="324" y="90" width="92" height="32" rx="12" fill="#0891B2"/>
  <text x="370" y="111" text-anchor="middle" font-family="'Inter', 'Noto Sans', sans-serif" font-size="13" font-weight="700" fill="white">儲存紀錄</text>
  <g stroke="#0891B2" stroke-width="4" stroke-linecap="round">
    <path d="M308 120L350 160"/>
    <path d="M344 138L350 160L330 154" stroke-linejoin="round"/>
  </g>
  <rect x="268" y="206" width="156" height="36" rx="12" fill="rgba(8,145,178,0.12)"/>
  <text x="346" y="230" text-anchor="middle" font-family="'Inter', 'Noto Sans', sans-serif" font-size="12" font-weight="600" fill="#0F172A">在「股票紀錄」追蹤每次成果</text>
</svg>
