<!-- Asset Version: LB-GUIDE-IMG-20250218D -->
<svg width="480" height="280" viewBox="0 0 480 280" fill="none" xmlns="http://www.w3.org/2000/svg">
  <rect width="480" height="280" rx="18" fill="#F8FAFC"/>
  <rect x="30" y="34" width="420" height="212" rx="18" fill="#FFFFFF" stroke="#CBD5E1" stroke-width="2"/>
  <rect x="54" y="62" width="168" height="18" rx="9" fill="#E2E8F0"/>
  <rect x="54" y="90" width="120" height="12" rx="6" fill="#E2E8F0"/>
  <rect x="54" y="112" width="96" height="12" rx="6" fill="#E2E8F0"/>
  <rect x="54" y="134" width="132" height="12" rx="6" fill="#E2E8F0"/>
  <rect x="216" y="70" width="206" height="152" rx="14" fill="#F1F5F9"/>
  <polyline points="232,192 252,168 272,176 292,148 312,160 332,126 352,132 372,108" fill="none" stroke="#0891B2" stroke-width="4" stroke-linecap="round" stroke-linejoin="round"/>
  <circle cx="372" cy="108" r="8" fill="#0891B2"/>
  <rect x="54" y="204" width="132" height="28" rx="10" fill="#0891B2"/>
  <text x="120" y="222" text-anchor="middle" font-family="'Inter', 'Noto Sans', sans-serif" font-size="13" font-weight="700" fill="white">查看交易紀錄</text>
  <g stroke="#0891B2" stroke-width="4" stroke-linecap="round">
    <path d="M320 206L360 246"/>
    <path d="M356 224L360 246L340 240" stroke-linejoin="round"/>
  </g>
  <rect x="264" y="214" width="156" height="34" rx="12" fill="rgba(8,145,178,0.12)"/>
  <text x="342" y="235" text-anchor="middle" font-family="'Inter', 'Noto Sans', sans-serif" font-size="12" font-weight="600" fill="#0F172A">善用圖表找出最穩定策略</text>
</svg>
